<svg width="48" height="48" viewBox="0 0 48 48" fill="none" xmlns="http://www.w3.org/2000/svg">
<path d="M37.1616 0H10.8384C4.85253 0 0 4.875 0 10.8886V37.1114C0 43.125 4.85253 48 10.8384 48H37.1616C43.1475 48 48 43.125 48 37.1114V10.8886C48 4.875 43.1475 0 37.1616 0Z" fill="white"/>
<path fill-rule="evenodd" clip-rule="evenodd" d="M19.2094 18.6063H25.2741V21.7294H25.3622C26.2069 20.2074 28.2722 18.6063 31.3519 18.6063C37.7559 18.6063 38.94 22.6101 38.94 27.8185V38.8305H32.6156L32.6147 29.0231C32.6147 26.7805 32.5688 23.8947 29.3259 23.8947C26.0334 23.8947 25.5281 26.3351 25.5281 28.8601V38.8305H19.2094V18.6063ZM15.6253 12.4759C15.6253 14.2993 14.1516 15.7798 12.3366 15.7798C10.5206 15.7798 9.04688 14.2993 9.04688 12.4759C9.04688 10.6515 10.5206 9.17188 12.3366 9.17188C14.1516 9.17188 15.6253 10.6515 15.6253 12.4759ZM9.04688 18.6063H15.6253V38.8305H9.04688V18.6063Z" fill="#003F75"/>
</svg>
