<svg width="123" height="97" viewBox="0 0 123 97" fill="none" xmlns="http://www.w3.org/2000/svg">
<path d="M12.0001 73.5116C12.1334 50.3516 12.2634 27.225 12.3901 4.13162C12.3955 3.38841 12.6586 2.67011 13.1346 2.0993C13.6106 1.52848 14.2699 1.14052 15.0001 1.00162C23.4001 -0.74838 36.6401 -0.30838 45.6301 3.14162C51.961 5.42768 57.5105 9.46843 61.6301 14.7916C65.8815 9.72324 71.4032 5.87534 77.6301 3.64162C86.1201 0.40162 99.0001 -0.37838 108.23 1.00162C108.992 1.1049 109.691 1.47908 110.2 2.05568C110.709 2.63228 110.993 3.37276 111 4.14162V73.8016C110.999 74.224 110.914 74.642 110.751 75.0316C110.588 75.4212 110.349 75.7748 110.049 76.0721C109.749 76.3693 109.393 76.6045 109.002 76.764C108.611 76.9235 108.192 77.0042 107.77 77.0016C107.521 76.9981 107.273 76.968 107.03 76.9116C99.1478 75.889 91.1367 76.6371 83.5801 79.1016C77.9977 81.1824 72.6994 83.9576 67.8101 87.3616C74.6853 85.2281 81.8518 84.1821 89.0501 84.2616C98.287 84.4086 107.479 85.5757 116.46 87.7416V14.8416H119.67C120.521 14.8416 121.338 15.1798 121.94 15.7818C122.542 16.3838 122.88 17.2003 122.88 18.0516V91.9416C122.88 92.793 122.542 93.6094 121.94 94.2114C121.338 94.8134 120.521 95.1516 119.67 95.1516C119.33 95.1488 118.992 95.0914 118.67 94.9816C108.996 92.3215 99.0307 90.8671 89.0001 90.6516C80.1358 90.5398 71.3509 92.3336 63.2401 95.9116C62.6961 96.2578 62.0648 96.4416 61.4201 96.4416C60.7753 96.4416 60.144 96.2578 59.6001 95.9116C51.4895 92.3327 42.7044 90.5389 33.8401 90.6516C23.8321 90.8794 13.8904 92.3404 4.24006 95.0016C3.91797 95.1114 3.58035 95.1688 3.24006 95.1716C2.81431 95.1756 2.39202 95.0949 1.99778 94.9341C1.60354 94.7733 1.24523 94.5357 0.943698 94.2351C0.64217 93.9345 0.403454 93.5769 0.241451 93.1832C0.0794467 92.7894 -0.00260824 92.3674 6.31917e-05 91.9416V18.0516C6.31917e-05 17.2003 0.338259 16.3838 0.94025 15.7818C1.54224 15.1798 2.35872 14.8416 3.21006 14.8416H6.42006V87.7416C15.4007 85.5757 24.5931 84.4086 33.8301 84.2616C41.5467 84.1703 49.2237 85.3771 56.5401 87.8316C51.9185 84.0935 46.6517 81.233 41.0001 79.3916C34.0001 77.0916 23.3201 76.3216 15.5101 76.9916C15.0866 77.0328 14.6592 76.9895 14.2527 76.864C13.8462 76.7386 13.4686 76.5336 13.1421 76.261C12.8155 75.9883 12.5463 75.6535 12.3503 75.2759C12.1542 74.8984 12.0352 74.4856 12.0001 74.0616C11.99 73.8784 11.99 73.6948 12.0001 73.5116ZM73.6401 64.4016C73.3879 64.5895 73.0998 64.7237 72.7937 64.7958C72.4876 64.868 72.1699 64.8766 71.8604 64.8211C71.5508 64.7656 71.2559 64.6473 70.9939 64.4733C70.7319 64.2994 70.5083 64.0735 70.337 63.8098C70.1657 63.546 70.0504 63.2499 69.9981 62.9398C69.9457 62.6297 69.9576 62.3121 70.0328 62.0068C70.1081 61.7014 70.2452 61.4147 70.4356 61.1644C70.6261 60.9142 70.8658 60.7056 71.1401 60.5516C74.8298 58.2609 78.7946 56.4465 82.9401 55.1516C87.1464 53.7278 91.513 52.831 95.9401 52.4816C96.2408 52.4652 96.5418 52.5082 96.8259 52.6081C97.11 52.708 97.3717 52.8629 97.5959 53.064C97.8202 53.265 98.0027 53.5082 98.1329 53.7798C98.2632 54.0513 98.3386 54.3459 98.3551 54.6466C98.3715 54.9473 98.3285 55.2484 98.2286 55.5325C98.1287 55.8166 97.9738 56.0783 97.7727 56.3025C97.5717 56.5268 97.3284 56.7092 97.0569 56.8395C96.7853 56.9697 96.4908 57.0452 96.1901 57.0616C92.1745 57.3979 88.2151 58.224 84.4001 59.5216C80.6214 60.6865 77.0058 62.3263 73.6401 64.4016ZM73.8401 46.6416C73.3269 46.9678 72.7051 47.0768 72.1115 46.9446C71.518 46.8124 71.0013 46.4498 70.6751 45.9366C70.3488 45.4234 70.2399 44.8017 70.3721 44.2081C70.5043 43.6146 70.8669 43.0978 71.3801 42.7716C75.062 40.5316 79.0048 38.7517 83.1201 37.4716C87.2588 36.0862 91.55 35.2064 95.9001 34.8516C96.4951 34.8414 97.071 35.0623 97.5066 35.4678C97.9422 35.8733 98.2037 36.4319 98.2361 37.0262C98.2684 37.6205 98.0692 38.2042 97.6802 38.6546C97.2912 39.105 96.7427 39.3871 96.1501 39.4416C92.1909 39.7701 88.2859 40.5759 84.5201 41.8416C80.7775 42.9998 77.1908 44.6118 73.8401 46.6416ZM73.9001 28.9416C73.6446 29.1031 73.3599 29.2128 73.0621 29.2643C72.7643 29.3158 72.4593 29.3081 72.1645 29.2417C71.8697 29.1753 71.5908 29.0515 71.3438 28.8773C71.0968 28.7031 70.8866 28.482 70.7251 28.2266C70.5635 27.9712 70.4539 27.6865 70.4024 27.3887C70.3509 27.0909 70.3586 26.7859 70.425 26.491C70.4914 26.1962 70.6152 25.9173 70.7894 25.6704C70.9635 25.4234 71.1846 25.2131 71.4401 25.0516C75.1164 22.822 79.0525 21.0521 83.1601 19.7816C87.2858 18.4022 91.5638 17.5292 95.9001 17.1816C96.2008 17.1652 96.5018 17.2082 96.7859 17.3081C97.07 17.408 97.3317 17.5629 97.5559 17.764C97.7802 17.965 97.9627 18.2082 98.0929 18.4798C98.2232 18.7513 98.2986 19.0459 98.3151 19.3466C98.3315 19.6473 98.2885 19.9484 98.1886 20.2325C98.0887 20.5166 97.9338 20.7783 97.7327 21.0025C97.5317 21.2268 97.2884 21.4092 97.0169 21.5395C96.7453 21.6697 96.4508 21.7452 96.1501 21.7616C92.2048 22.0905 88.3135 22.893 84.5601 24.1516C80.8246 25.3073 77.2446 26.9159 73.9001 28.9416ZM51.7401 60.5516C52.0143 60.7056 52.254 60.9142 52.4445 61.1644C52.6349 61.4147 52.772 61.7014 52.8473 62.0068C52.9225 62.3121 52.9344 62.6297 52.8821 62.9398C52.8297 63.2499 52.7144 63.546 52.5431 63.8098C52.3718 64.0735 52.1483 64.2994 51.8863 64.4733C51.6242 64.6473 51.3293 64.7656 51.0198 64.8211C50.7102 64.8766 50.3926 64.868 50.0864 64.7958C49.7803 64.7237 49.4923 64.5895 49.2401 64.4016C45.8869 62.3293 42.2849 60.6896 38.5201 59.5216C34.7051 58.224 30.7457 57.3979 26.7301 57.0616C26.4293 57.0439 26.135 56.9671 25.864 56.8356C25.5929 56.7042 25.3504 56.5206 25.1503 56.2954C24.9502 56.0703 24.7964 55.8079 24.6977 55.5232C24.599 55.2386 24.5573 54.9373 24.5751 54.6366C24.5928 54.3359 24.6696 54.0416 24.801 53.7706C24.9325 53.4995 25.1161 53.257 25.3412 53.0569C25.5664 52.8568 25.8288 52.703 26.1134 52.6043C26.3981 52.5056 26.6993 52.4639 27.0001 52.4816C31.4271 52.831 35.7937 53.7278 40.0001 55.1516C44.1455 56.4465 48.1104 58.2609 51.8001 60.5516H51.7401ZM51.5001 42.7716C52.0133 43.1031 52.3737 43.625 52.5022 44.2223C52.6307 44.8196 52.5166 45.4434 52.1851 45.9566C51.8535 46.4698 51.3317 46.8303 50.7344 46.9588C50.1371 47.0872 49.5133 46.9731 49.0001 46.6416C45.6493 44.6118 42.0626 42.9998 38.3201 41.8416C34.5543 40.5759 30.6493 39.7701 26.6901 39.4416C26.0814 39.4005 25.514 39.1193 25.1127 38.6598C24.7113 38.2004 24.509 37.6003 24.5501 36.9916C24.5912 36.3829 24.8724 35.8155 25.3319 35.4142C25.7913 35.0129 26.3914 34.8105 27.0001 34.8516C31.3501 35.2064 35.6413 36.0862 39.7801 37.4716C43.8954 38.7517 47.8381 40.5316 51.5201 42.7716H51.5001ZM51.4401 25.0516C51.7151 25.2022 51.9564 25.4074 52.1492 25.6546C52.342 25.9018 52.4822 26.1859 52.5612 26.4893C52.6403 26.7927 52.6564 27.109 52.6088 27.4189C52.5611 27.7287 52.4505 28.0256 52.2839 28.2912C52.1174 28.5568 51.8982 28.7855 51.64 28.9633C51.3818 29.1411 51.0899 29.2643 50.7824 29.3252C50.4749 29.3861 50.1581 29.3835 49.8516 29.3176C49.5451 29.2516 49.2553 29.1237 49.0001 28.9416C45.6555 26.9159 42.0756 25.3073 38.3401 24.1516C34.5866 22.893 30.6953 22.0905 26.7501 21.7616C26.4493 21.7452 26.1548 21.6697 25.8832 21.5395C25.6117 21.4092 25.3684 21.2268 25.1674 21.0025C24.9664 20.7783 24.8115 20.5166 24.7115 20.2325C24.6116 19.9484 24.5686 19.6473 24.5851 19.3466C24.6015 19.0459 24.677 18.7513 24.8072 18.4798C24.9375 18.2082 25.1199 17.965 25.3442 17.764C25.5684 17.5629 25.8301 17.408 26.1142 17.3081C26.3983 17.2082 26.6993 17.1652 27.0001 17.1816C31.3364 17.5292 35.6144 18.4022 39.7401 19.7816C43.8476 21.0521 47.7837 22.822 51.4601 25.0516H51.4401ZM104.56 7.00162C97.1401 6.30162 86.5001 7.12162 79.8301 9.65162C73.6295 11.8252 68.314 15.9743 64.7001 21.4616V81.7216C69.8969 78.1597 75.5125 75.2512 81.4201 73.0616C88.8869 70.67 96.7352 69.6966 104.56 70.1916V7.00162ZM58.2801 81.1016V21.3716C54.9201 15.4416 49.4901 11.4816 43.3501 9.13162C36.3501 6.46162 25.6001 5.86162 18.7901 6.83162L18.4301 70.3916C25.8601 70.1216 36.1201 71.0716 42.9501 73.3016C48.4379 75.0806 53.6113 77.7129 58.2801 81.1016Z" fill="#53D6FF"/>
</svg>
