<svg width="123" height="122" viewBox="0 0 123 122" fill="none" xmlns="http://www.w3.org/2000/svg">
<path d="M98.42 98.8C98.17 98.19 98.03 97.52 98.03 96.82C98.03 96.12 98.17 95.45 98.42 94.84C98.68 94.23 99.05 93.67 99.51 93.21L99.54 93.17C99.8 92.91 100.1 92.66 100.42 92.47C100.59 92.36 100.77 92.26 100.97 92.17V83.95H92.46C92.2 85.75 91.34 87.37 90.1 88.62C88.55 90.17 86.4 91.13 84.03 91.13H78.9V113.55H93.95C94.03 113.42 94.11 113.29 94.2 113.16C94.38 112.9 94.58 112.66 94.8 112.44C95.27 111.97 95.84 111.58 96.48 111.32C97.09 111.07 97.76 110.93 98.46 110.93C99.15 110.93 99.83 111.07 100.44 111.32C101.08 111.58 101.64 111.97 102.12 112.44C102.59 112.91 102.98 113.48 103.24 114.12C103.49 114.73 103.63 115.4 103.63 116.1C103.63 116.79 103.49 117.45 103.24 118.08C102.98 118.72 102.59 119.29 102.12 119.76C101.65 120.23 101.08 120.62 100.44 120.88C99.83 121.13 99.16 121.27 98.46 121.27C97.78 121.27 97.13 121.14 96.52 120.89L96.48 120.88C95.84 120.62 95.28 120.23 94.8 119.76C94.51 119.47 94.25 119.13 94.03 118.78C93.91 118.58 93.8 118.36 93.71 118.15H76.6C75.96 118.15 75.39 117.89 74.97 117.47C74.54 117.04 74.28 116.47 74.28 115.83V91.13H63.08V111.47C63.25 111.56 63.42 111.65 63.59 111.76C63.9 111.95 64.19 112.19 64.44 112.44C64.92 112.92 65.3 113.48 65.56 114.12C65.81 114.73 65.95 115.4 65.95 116.1C65.95 116.78 65.82 117.43 65.57 118.04L65.56 118.08C65.3 118.72 64.91 119.28 64.44 119.76C63.97 120.23 63.4 120.62 62.76 120.88C62.15 121.13 61.48 121.27 60.78 121.27C60.09 121.27 59.42 121.13 58.8 120.88C58.16 120.62 57.59 120.23 57.12 119.76C56.65 119.29 56.26 118.72 56 118.08C55.75 117.47 55.61 116.8 55.61 116.1C55.61 115.42 55.74 114.77 55.99 114.16L56 114.12C56.26 113.48 56.65 112.92 57.12 112.44C57.37 112.19 57.64 111.97 57.94 111.78L57.98 111.75C58.14 111.66 58.31 111.57 58.48 111.48V91.13H43.54V101.67C43.54 102.31 43.28 102.88 42.86 103.3C42.44 103.72 41.87 103.98 41.23 103.98H30.63C30.55 104.14 30.46 104.29 30.36 104.45C30.18 104.72 29.97 104.98 29.73 105.22L29.69 105.26C29.22 105.73 28.65 106.12 28.01 106.38C27.4 106.63 26.73 106.77 26.03 106.77C25.35 106.77 24.7 106.64 24.09 106.39L24.05 106.38C23.41 106.12 22.85 105.73 22.37 105.26C21.9 104.79 21.51 104.22 21.25 103.58C21 102.97 20.86 102.3 20.86 101.6C20.86 100.91 21 100.24 21.25 99.62C21.51 98.98 21.9 98.41 22.37 97.94C22.86 97.48 23.44 97.09 24.08 96.83C24.69 96.58 25.36 96.44 26.06 96.44C26.76 96.44 27.43 96.58 28.04 96.83C28.65 97.09 29.21 97.46 29.67 97.93L29.71 97.96C29.97 98.22 30.22 98.52 30.41 98.84C30.51 99.01 30.62 99.19 30.71 99.39H38.93V90.94C37.3 90.58 35.84 89.76 34.71 88.63C33.2 87.12 32.27 85.06 32.27 82.8V77.31H7.73V92.36C7.86 92.44 7.99 92.52 8.12 92.61C8.38 92.79 8.61 92.99 8.84 93.21C9.31 93.68 9.7 94.25 9.96 94.89C10.21 95.5 10.35 96.17 10.35 96.87C10.35 97.56 10.21 98.24 9.96 98.85C9.7 99.49 9.31 100.05 8.84 100.53C8.37 101 7.8 101.39 7.16 101.65C6.55 101.9 5.88 102.04 5.18 102.04C4.49 102.04 3.83 101.9 3.2 101.65C2.56 101.39 1.99 101 1.52 100.53C1.05 100.06 0.66 99.49 0.4 98.85C0.14 98.22 0 97.55 0 96.85C0 96.17 0.13 95.52 0.38 94.91L0.39 94.87C0.65 94.23 1.04 93.67 1.51 93.19C1.8 92.9 2.14 92.64 2.49 92.42C2.68 92.3 2.91 92.19 3.12 92.1V75C3.12 74.36 3.38 73.79 3.8 73.37C4.23 72.94 4.8 72.68 5.44 72.68H32.27V61.48H9.81C9.72 61.65 9.63 61.82 9.52 61.99C9.33 62.3 9.09 62.59 8.84 62.84C8.36 63.32 7.8 63.7 7.16 63.96C6.55 64.21 5.88 64.35 5.18 64.35C4.5 64.35 3.85 64.22 3.24 63.97L3.2 63.96C2.56 63.7 2 63.31 1.52 62.84C1.05 62.37 0.66 61.8 0.4 61.16C0.15 60.55 0.01 59.88 0.01 59.18C0.01 58.49 0.15 57.82 0.4 57.2C0.66 56.56 1.05 55.99 1.52 55.52C1.99 55.05 2.56 54.66 3.2 54.4C3.82 54.14 4.48 54 5.19 54C5.87 54 6.52 54.13 7.13 54.38L7.17 54.39C7.81 54.65 8.37 55.04 8.85 55.51C9.1 55.76 9.32 56.03 9.52 56.33L9.55 56.37C9.64 56.53 9.73 56.7 9.82 56.87H32.27V42.96C32.27 42.62 32.29 42.28 32.33 41.94H19.61C18.97 41.94 18.4 41.68 17.98 41.26C17.56 40.84 17.3 40.27 17.3 39.63V29.03C17.14 28.95 16.99 28.86 16.83 28.76C16.56 28.58 16.3 28.37 16.06 28.13L16.02 28.09C15.55 27.62 15.16 27.05 14.9 26.41C14.65 25.8 14.51 25.13 14.51 24.43C14.51 23.75 14.64 23.1 14.89 22.49L14.9 22.45C15.16 21.81 15.55 21.25 16.02 20.77C16.49 20.3 17.06 19.91 17.7 19.65C18.31 19.4 18.98 19.26 19.68 19.26C20.37 19.26 21.04 19.4 21.66 19.65C22.3 19.91 22.87 20.3 23.34 20.77C23.8 21.26 24.19 21.84 24.45 22.48C24.7 23.09 24.84 23.76 24.84 24.46C24.84 25.16 24.7 25.83 24.45 26.44C24.19 27.05 23.82 27.61 23.36 28.07L23.33 28.11C23.07 28.37 22.77 28.62 22.44 28.81C22.27 28.91 22.09 29.02 21.89 29.11V37.33H34.44V37.39C34.52 37.3 34.61 37.21 34.69 37.13C36.24 35.58 38.39 34.62 40.76 34.62H45.57V7.73H30.54C30.46 7.86 30.38 7.99 30.29 8.12C30.11 8.38 29.91 8.61 29.69 8.84C29.22 9.31 28.65 9.7 28.01 9.96C27.4 10.21 26.73 10.35 26.03 10.35C25.34 10.35 24.66 10.21 24.05 9.96C23.41 9.7 22.85 9.31 22.37 8.84C21.9 8.37 21.51 7.8 21.25 7.16C21 6.54 20.86 5.88 20.86 5.17C20.86 4.48 21 3.82 21.25 3.19C21.51 2.55 21.9 1.98 22.37 1.51C22.84 1.04 23.41 0.65 24.05 0.39C24.66 0.14 25.33 0 26.03 0C26.71 0 27.36 0.13 27.97 0.38L28.01 0.39C28.65 0.65 29.21 1.04 29.69 1.51C29.98 1.8 30.24 2.14 30.46 2.49C30.58 2.68 30.69 2.91 30.79 3.12H47.88C48.52 3.12 49.09 3.38 49.51 3.8C49.94 4.23 50.2 4.8 50.2 5.44V34.62H61.4V9.81C61.23 9.72 61.06 9.63 60.89 9.52C60.58 9.33 60.29 9.09 60.04 8.84C59.56 8.36 59.18 7.8 58.92 7.16C58.67 6.55 58.53 5.88 58.53 5.18C58.53 4.5 58.66 3.85 58.91 3.24L58.92 3.2C59.18 2.56 59.57 2 60.04 1.52C60.51 1.05 61.08 0.66 61.72 0.4C62.33 0.15 63 0.01 63.7 0.01C64.39 0.01 65.06 0.15 65.68 0.4C66.32 0.66 66.89 1.05 67.36 1.52C67.83 1.99 68.22 2.56 68.48 3.2C68.73 3.81 68.87 4.48 68.87 5.18C68.87 5.86 68.74 6.51 68.49 7.12L68.48 7.16C68.22 7.8 67.83 8.36 67.36 8.84C67.11 9.09 66.84 9.31 66.54 9.51L66.5 9.54C66.34 9.63 66.17 9.72 66 9.81V34.61H80.93V19.61C80.93 18.97 81.19 18.4 81.61 17.98C82.03 17.56 82.6 17.3 83.24 17.3H93.85C93.93 17.14 94.02 16.99 94.12 16.83C94.3 16.56 94.51 16.3 94.75 16.06L94.79 16.02C95.26 15.55 95.83 15.16 96.47 14.9C97.08 14.65 97.75 14.51 98.45 14.51C99.13 14.51 99.78 14.64 100.39 14.89L100.43 14.9C101.07 15.16 101.63 15.55 102.11 16.02C102.58 16.49 102.97 17.06 103.23 17.7C103.48 18.31 103.62 18.98 103.62 19.68C103.62 20.37 103.48 21.04 103.23 21.66C102.97 22.3 102.58 22.87 102.11 23.34C101.61 23.8 101.04 24.19 100.4 24.45C99.79 24.7 99.12 24.84 98.42 24.84C97.72 24.84 97.05 24.7 96.44 24.45C95.83 24.19 95.27 23.82 94.81 23.36L94.77 23.33C94.51 23.07 94.26 22.77 94.07 22.45C93.96 22.28 93.86 22.1 93.77 21.9H85.55V34.74C87.32 35.05 88.9 35.91 90.11 37.12C91.62 38.63 92.55 40.69 92.55 42.95V43.98H115.15V28.93C115.02 28.85 114.89 28.77 114.76 28.68C114.5 28.5 114.27 28.3 114.05 28.08C113.58 27.61 113.19 27.04 112.93 26.4C112.68 25.79 112.54 25.12 112.54 24.42C112.54 23.73 112.68 23.05 112.93 22.44C113.19 21.8 113.58 21.24 114.05 20.76C114.52 20.29 115.09 19.9 115.73 19.64C116.34 19.39 117.01 19.25 117.71 19.25C118.4 19.25 119.07 19.39 119.69 19.64C120.33 19.9 120.9 20.29 121.37 20.76C121.84 21.23 122.23 21.8 122.49 22.44C122.74 23.05 122.88 23.72 122.88 24.42C122.88 25.1 122.75 25.75 122.5 26.36L122.49 26.4C122.23 27.04 121.84 27.6 121.37 28.08C121.08 28.37 120.74 28.63 120.39 28.85C120.19 28.97 119.97 29.08 119.76 29.18V46.27C119.76 46.91 119.5 47.48 119.08 47.9C118.65 48.33 118.08 48.59 117.44 48.59H92.55V59.79H113.07C113.16 59.62 113.25 59.45 113.36 59.28C113.56 58.97 113.79 58.68 114.04 58.43C114.52 57.95 115.08 57.57 115.72 57.31C116.33 57.06 117 56.92 117.7 56.92C118.38 56.92 119.03 57.05 119.64 57.3L119.68 57.31C120.32 57.57 120.88 57.96 121.36 58.43C121.83 58.9 122.22 59.47 122.48 60.11C122.73 60.72 122.87 61.39 122.87 62.09C122.87 62.78 122.73 63.45 122.48 64.07C122.22 64.71 121.83 65.28 121.36 65.75C120.89 66.22 120.32 66.61 119.68 66.87C119.07 67.12 118.4 67.26 117.7 67.26C117.02 67.26 116.37 67.13 115.76 66.88L115.72 66.87C115.08 66.61 114.52 66.22 114.04 65.75C113.79 65.5 113.57 65.23 113.37 64.93L113.34 64.89C113.25 64.73 113.16 64.56 113.07 64.39H92.55V79.32H103.27C103.91 79.32 104.48 79.58 104.9 80C105.32 80.42 105.58 80.99 105.58 81.63V92.24C105.74 92.32 105.89 92.41 106.05 92.52C106.32 92.7 106.58 92.91 106.82 93.15L106.86 93.19C107.33 93.66 107.72 94.23 107.98 94.87C108.23 95.48 108.37 96.15 108.37 96.85C108.37 97.53 108.24 98.18 107.99 98.79L107.98 98.83C107.72 99.47 107.33 100.03 106.86 100.51C106.39 100.98 105.82 101.37 105.18 101.63C104.57 101.88 103.9 102.02 103.2 102.02C102.51 102.02 101.84 101.88 101.22 101.63C100.58 101.37 100.01 100.98 99.54 100.51C99.08 100.02 98.68 99.44 98.42 98.8ZM53.49 52.14H71.33C72.72 52.14 73.85 53.27 73.85 54.66V71.09C73.85 72.48 72.72 73.61 71.33 73.61H53.49C52.1 73.61 50.97 72.48 50.97 71.09V54.66C50.97 53.27 52.1 52.14 53.49 52.14ZM84.04 39.08H40.77C39.78 39.08 38.87 39.49 38.21 40.16C37.5 40.87 37.06 41.86 37.06 42.96V82.79C37.06 83.89 37.5 84.88 38.21 85.59C38.88 86.26 39.78 86.67 40.77 86.67H84.04C85.03 86.67 85.94 86.26 86.6 85.59C87.31 84.88 87.75 83.89 87.75 82.79V42.96C87.75 41.86 87.31 40.87 86.6 40.16C85.94 39.49 85.03 39.08 84.04 39.08Z" fill="#53D6FF"/>
</svg>
