<svg width="123" height="123" viewBox="0 0 123 123" fill="none" xmlns="http://www.w3.org/2000/svg">
<path d="M52.01 110.22C42.05 108.31 33.15 103.43 26.25 96.54C19.35 89.64 14.48 80.74 12.57 70.77H18.78C20.6 79.05 24.77 86.45 30.56 92.24C36.34 98.02 43.74 102.19 52.02 104.02V110.22H52.01ZM96.31 64.48C94.63 64.48 93.27 63.12 93.27 61.44C93.27 59.76 94.63 58.4 96.31 58.4H119.83C121.51 58.4 122.87 59.76 122.87 61.44C122.87 63.12 121.51 64.48 119.83 64.48H96.31ZM64.48 26.57C64.48 28.25 63.12 29.61 61.44 29.61C59.76 29.61 58.4 28.25 58.4 26.57V3.04C58.4 1.36 59.76 0 61.44 0C63.12 0 64.48 1.36 64.48 3.04V26.57ZM64.48 119.84C64.48 121.52 63.12 122.88 61.44 122.88C59.76 122.88 58.4 121.52 58.4 119.84V96.31C58.4 92.31 64.48 92.31 64.48 96.31V119.84ZM3.04 64.48C1.36 64.48 0 63.12 0 61.44C0 59.76 1.36 58.4 3.04 58.4H26.56C28.24 58.4 29.6 59.76 29.6 61.44C29.6 63.12 28.24 64.48 26.56 64.48H3.04ZM12.56 51.92C14.47 41.96 19.35 33.06 26.24 26.16C33.14 19.26 42.04 14.38 52.01 12.47V18.69C43.73 20.51 36.33 24.68 30.54 30.47C24.76 36.25 20.58 43.64 18.77 51.92H12.56ZM70.86 12.46C80.83 14.37 89.73 19.25 96.63 26.15C103.53 33.04 108.41 41.96 110.31 51.92H104.1C102.28 43.64 98.11 36.23 92.32 30.45C86.54 24.66 79.14 20.49 70.86 18.67V12.46ZM110.32 70.77C108.41 80.73 103.53 89.64 96.63 96.54C89.73 103.44 80.83 108.32 70.86 110.23V104.02C87.41 100.38 100.48 87.33 104.11 70.77H110.32Z" fill="#53D6FF"/>
<circle cx="61.5" cy="61.5" r="23.5" fill="#53D6FF"/>
<path fill-rule="evenodd" clip-rule="evenodd" d="M74.3972 50.569C75.1875 51.3407 75.2027 52.6069 74.431 53.3972L57.3774 70.8628L48.569 61.8417C47.7973 61.0514 47.8125 59.7851 48.6028 59.0135C49.3931 58.2418 50.6593 58.2569 51.431 59.0472L57.3774 65.1372L71.569 50.6028C72.3407 49.8125 73.6069 49.7973 74.3972 50.569Z" fill="#003F6F"/>
</svg>
