<svg width="32" height="32" viewBox="0 0 32 32" fill="none" xmlns="http://www.w3.org/2000/svg">
<circle cx="16" cy="16" r="16" fill="#003F75"/>
<path d="M17.9902 13.3984L15.8054 14.7639L13.6206 16.1294" stroke="white" stroke-width="0.75"/>
<path d="M16.0786 19.9527V14.4907" stroke="white" stroke-width="0.75"/>
<path d="M16.0783 7.11719L7.6123 11.4867V21.8644L16.0783 25.9609L24.2712 21.8644V11.4867L16.0783 7.11719Z" stroke="white" stroke-width="0.75"/>
<path d="M12.2944 9.08064L7.71325 15.6516L11.7822 23.6973L19.6828 23.69L24.168 17.4335L20.0991 9.38774L12.2944 9.08064Z" stroke="white" stroke-width="0.75"/>
<circle cx="16.0787" cy="16.4024" r="4.26765" stroke="white" stroke-width="0.75"/>
<path d="M9.82324 12.8523L12.2536 14.2875M22.1126 20.2259L19.6547 18.5873" stroke="white" stroke-width="0.75"/>
<path d="M16.0786 9.02881L16.0786 12.0329M16.0786 23.7761L16.0786 20.772" stroke="white" stroke-width="0.75"/>
<path d="M21.9526 13.0874L19.902 14.2991M9.93633 20.1879L12.2553 18.8176" stroke="white" stroke-width="0.75"/>
</svg>
