<svg width="25" height="36" viewBox="0 0 25 36" fill="none" xmlns="http://www.w3.org/2000/svg">
<path d="M12.4932 34.5028C11.853 33.623 9.19224 29.9189 6.58333 25.6062C5.14703 23.232 3.73822 20.6925 2.6916 18.3501C1.62954 15.9731 1 13.9263 1 12.4936C1 6.15711 6.15648 1 12.4926 1C18.829 1 23.9863 6.15722 23.9863 12.4936C23.9863 13.9263 23.3568 15.9731 22.2947 18.3501C21.2481 20.6925 19.8393 23.232 18.4031 25.6062C15.794 29.9191 13.1331 33.6235 12.4932 34.5028ZM17.9678 12.4936C17.9678 9.47325 15.5131 7.01842 12.4926 7.01842C9.4737 7.01842 7.01742 9.47305 7.01742 12.4936C7.01742 15.5127 9.47361 17.9688 12.4926 17.9688C15.5132 17.9688 17.9678 15.5125 17.9678 12.4936Z" stroke="#53D6FF" stroke-width="2"/>
</svg>
