<svg width="36" height="27" viewBox="0 0 36 27" fill="none" xmlns="http://www.w3.org/2000/svg">
<path d="M2.06486 0H33.9354C34.5035 0 35.0197 0.232619 35.3936 0.606157C35.7677 0.980281 36 1.49738 36 2.06486V23.9671C36 24.3951 35.8679 24.7939 35.6423 25.1246C35.601 25.2316 35.5365 25.3312 35.4483 25.4158C35.3895 25.4712 35.3247 25.5166 35.2561 25.5509C34.8973 25.85 34.4361 26.0322 33.9354 26.0322H2.06486C1.49738 26.0322 0.980574 25.7999 0.606157 25.4258C0.232619 25.052 0 24.5357 0 23.9671V2.06486C0 1.4962 0.232033 0.979695 0.605864 0.606157C0.979695 0.232033 1.4962 0 2.06486 0ZM1.5838 23.0984L12.753 11.9011L1.5838 2.79436V23.0984ZM13.9832 12.9039L2.46799 24.4481H33.4353L22.4307 12.9057L18.8029 15.9968C18.5184 16.24 18.0924 16.2537 17.7913 16.0094L13.9832 12.9039ZM23.6352 11.8797L34.4162 23.1878V2.69475L23.6352 11.8797ZM2.59777 1.5838L18.2779 14.3688L33.2847 1.5838H2.59777Z" fill="white"/>
</svg>
